<svg width="169" height="20" viewBox="0 0 169 20" fill="none" xmlns="http://www.w3.org/2000/svg">
<g id="Group 1171276445">
<path id="Vector" d="M113.57 18.7233C113.722 18.3753 113.89 18.0353 114.076 17.7045C114.231 17.4539 114.458 17.2471 114.648 17.0166C114.798 16.8346 114.946 16.649 115.088 16.4599C115.169 16.3193 115.262 16.186 115.366 16.0616C115.601 15.8538 115.788 15.5967 115.913 15.3087C116.007 15.0829 116.237 14.9151 116.399 14.7177C116.561 14.5203 116.726 14.291 116.895 14.0818C117.081 13.8525 117.276 13.6292 117.462 13.401C117.537 13.31 117.601 13.2108 117.667 13.1138C117.766 12.9685 117.831 12.7722 117.967 12.6836C118.335 12.4472 118.417 12.0064 118.705 11.718C118.76 11.6624 118.849 11.6329 118.894 11.5714C119.092 11.2984 119.268 11.01 119.474 10.7441C119.666 10.4958 119.885 10.2713 120.091 10.0349C120.134 9.98024 120.174 9.92258 120.209 9.86233C120.315 9.67092 120.434 9.48654 120.564 9.31035C120.819 9.01132 121.194 8.81632 121.291 8.379C121.321 8.24308 121.472 8.12252 121.589 8.02442C121.804 7.84703 121.974 7.62204 122.087 7.36726C122.206 7.1096 122.467 6.9205 122.665 6.69948C122.711 6.64865 122.775 6.59782 122.783 6.53754C122.88 6.14986 123.224 5.95841 123.45 5.67475C123.493 5.62156 123.554 5.56954 123.568 5.50926C123.647 5.12159 124.009 4.95139 124.209 4.65827C124.246 4.60391 124.34 4.56372 124.342 4.51408C124.357 4.21151 124.614 4.07795 124.763 3.86993C124.802 3.81793 124.831 3.69144 124.805 3.67016C124.618 3.51533 124.45 3.37468 124.157 3.37586C121.286 3.39241 118.416 3.38296 115.547 3.37586C115.31 3.37586 115.074 3.40659 114.945 3.13948C114.904 3.05201 114.827 2.96692 114.827 2.87946C114.815 2.21521 114.827 1.54861 114.814 0.884365C114.814 0.62434 114.922 0.51441 115.168 0.519137C115.318 0.519137 115.468 0.512039 115.62 0.512039C120.629 0.512039 125.638 0.512039 130.647 0.512039C130.786 0.510024 130.926 0.517521 131.064 0.534489C131.289 0.565219 131.407 0.780356 131.27 0.944645C131.011 1.25668 130.723 1.54387 130.442 1.84171C130.395 1.89189 130.351 1.94608 130.312 2.00365C130.206 2.19506 130.088 2.37942 129.958 2.55561C129.765 2.78136 129.452 2.94327 129.349 3.19621C129.21 3.54015 128.956 3.76828 128.74 4.03539C128.422 4.43252 128.149 4.86273 127.787 5.23268C127.55 5.46906 127.23 5.6901 127.137 6.09905C127.083 6.33543 126.782 6.51391 126.603 6.72193C126.535 6.80082 126.473 6.88458 126.417 6.97251C126.32 7.12143 126.254 7.30227 126.127 7.4181C125.891 7.61994 125.706 7.87518 125.588 8.1627C125.492 8.39909 125.214 8.56576 125.033 8.77733C124.873 8.96407 124.737 9.17091 124.592 9.36829C124.505 9.50147 124.41 9.62862 124.306 9.74887C124.1 9.96162 123.878 10.159 123.664 10.3647C123.639 10.3967 123.618 10.4321 123.603 10.4698C123.484 10.6684 123.406 10.8989 123.248 11.0608C123.044 11.2487 122.876 11.4722 122.752 11.7203C122.633 11.978 122.366 12.1683 122.161 12.3893C122.114 12.4388 122.071 12.4918 122.033 12.5477C121.92 12.7478 121.797 12.9415 121.663 13.128C121.417 13.4294 121.044 13.6232 120.954 14.057C120.924 14.1929 120.748 14.2934 120.637 14.4116C120.43 14.6255 120.182 14.8111 120.03 15.0569C119.935 15.2082 119.95 15.4541 119.987 15.6479C119.998 15.7058 120.24 15.7507 120.376 15.7507C123.374 15.7507 126.373 15.7507 129.373 15.7507C129.846 15.7507 130.038 15.9398 130.041 16.4067C130.041 17.0934 130.041 17.7801 130.041 18.468C130.041 18.6902 129.939 18.7659 129.723 18.8805C129.114 19.2032 128.49 19.0531 127.879 19.0554C123.3 19.0755 118.72 19.0661 114.141 19.085C113.829 19.0743 113.746 18.8403 113.57 18.7233Z" fill="white"/>
<path id="Vector_2" d="M5.87305 0.54476H11.1918C11.5782 0.54476 11.8702 0.771686 12.181 0.952522C12.216 0.975187 12.2528 0.994952 12.291 1.01162C12.8914 1.22909 13.207 1.44775 13.7093 2.04345C13.9563 2.33656 14.1821 2.64742 14.4066 2.96181C14.4563 3.03273 14.4303 3.1533 14.4622 3.24194C14.513 3.38023 14.5804 3.51141 14.6489 3.64616C14.6572 3.66507 14.6808 3.67806 14.6844 3.69697C14.7778 4.09646 14.9101 4.49243 14.9515 4.89783C14.9841 5.36994 14.9877 5.84361 14.9621 6.31616C14.9551 6.58091 15.0401 6.87639 14.7718 7.08323C14.7399 7.10805 14.7399 7.18488 14.7399 7.23807C14.747 7.75221 14.4456 8.1505 14.2672 8.60082C13.9799 9.3478 13.311 9.70592 12.8323 10.2555C12.6692 10.4411 12.3501 10.4919 12.0995 10.6007C11.7449 10.7555 11.3809 10.9115 11.0156 11.0522C10.901 11.0771 10.7843 11.0917 10.667 11.0959C10.4365 11.1384 10.1718 11.0415 9.98974 11.2933C9.94719 11.3512 9.78764 11.3323 9.68127 11.3323C7.77954 11.3382 5.87662 11.3323 3.97489 11.3488C3.05652 11.3571 3.09198 11.2425 3.08962 12.2518C3.08962 14.2375 3.08962 16.2231 3.08962 18.2076C3.08962 18.6083 2.64283 19.0645 2.24334 19.0669C1.68428 19.0669 1.12523 19.0669 0.567361 19.0669C0.392434 19.0669 0.341616 18.9841 0.247061 18.8399C-0.107519 18.2927 0.0248677 17.6958 0.0213219 17.119C0.00832065 14.2824 0.0118561 11.4528 0.0106741 8.61974C0.0106741 8.19898 0.215152 7.9874 0.634739 7.98622C3.26809 7.98622 5.90142 7.98623 8.53359 7.97086C8.71915 7.97086 8.90237 7.86685 9.08675 7.81721C9.16842 7.79368 9.25245 7.7794 9.33731 7.77464C9.61579 7.75217 9.89564 7.75217 10.1741 7.77464C10.7214 7.85265 11.057 7.50754 11.3407 7.16596C11.7035 6.72983 11.9435 6.21214 11.8631 5.60463C11.8383 5.42143 11.8998 5.22167 11.6882 5.09284C11.6374 5.06211 11.6291 4.93564 11.6291 4.85645C11.6291 4.52197 11.4341 4.31513 11.2 4.11775C11.0696 3.99756 10.9461 3.87011 10.8301 3.73598C10.8088 3.71353 10.7946 3.67218 10.7698 3.66508C10.446 3.57053 10.1198 3.40622 9.79355 3.40267C6.96754 3.38021 4.14036 3.38613 1.31435 3.38377C1.07796 3.38377 0.841578 3.38376 0.605191 3.37667C0.21988 3.36603 0.0142234 3.16276 0.0142234 2.77272C0.00831373 2.19239 0.0142234 1.61325 0.0142234 1.0341C0.0142234 0.561324 0.0461148 0.51876 0.524798 0.517578C2.30873 0.517578 4.09267 0.517578 5.8766 0.517578L5.87305 0.54476Z" fill="white"/>
<path id="Vector_3" d="M41.1566 3.3462C40.7015 2.78833 40.7772 2.18318 40.8091 1.60048C40.8441 1.26293 40.9236 0.93151 41.0455 0.614768C41.0667 0.552126 41.263 0.520206 41.38 0.519025C42.7014 0.508387 44.0239 0.501282 45.3453 0.504827C47.2695 0.509555 49.1933 0.520195 51.1167 0.536742C51.3129 0.536742 51.534 0.487105 51.6604 0.718764C51.6746 0.745949 51.7361 0.748327 51.7786 0.76251C52.1084 0.868884 52.4594 0.935052 52.7584 1.09579C53.0055 1.22817 53.1958 1.47048 53.4038 1.67141C53.5385 1.80142 53.6579 1.9468 53.7879 2.08154C53.8151 2.1099 53.8789 2.11464 53.8919 2.14537C54.0007 2.40185 54.0976 2.66543 54.2075 2.92191C54.302 3.14175 54.3611 3.41121 54.5266 3.55541C54.6921 3.6996 54.6779 3.86153 54.7039 4.02818C54.7417 4.26457 54.6377 4.54705 54.9013 4.73734C54.9486 4.77044 54.9356 4.89809 54.9367 4.98319C54.9367 5.3685 54.9497 5.755 54.9367 6.14149C54.9367 6.36606 54.9722 6.58945 54.7677 6.79511C54.6696 6.89321 54.7252 7.14259 54.7039 7.32225C54.6826 7.5019 54.7405 7.691 54.5113 7.7891C54.4652 7.8092 54.4474 7.94394 54.451 8.02549C54.4675 8.37062 54.2843 8.6011 54.0349 8.80203C53.9943 8.8302 53.9653 8.87222 53.9534 8.92022C53.9321 9.34099 53.5208 9.4828 53.334 9.78656C53.2619 9.90475 53.1071 9.96978 53.0019 10.0714C52.7209 10.3283 52.3812 10.5125 52.0126 10.608C51.8218 10.6737 51.6368 10.7551 51.4595 10.8515C51.4336 10.8659 51.4114 10.8861 51.3946 10.9105C51.3778 10.9349 51.3668 10.9628 51.3626 10.9922C51.3862 11.3006 51.2219 11.6209 51.547 11.9082C51.729 12.0701 51.7562 12.3998 51.8755 12.6421C52.0055 12.9045 52.1627 13.1551 52.3081 13.4104C52.3282 13.4458 52.3507 13.4801 52.3696 13.5156C52.5374 13.8323 52.7147 14.1432 52.8672 14.467C52.9854 14.7211 53.0492 15.0036 53.1792 15.2518C53.3577 15.5934 53.5752 15.9149 53.7796 16.2423C53.8056 16.2837 53.873 16.3037 53.8896 16.3463C53.9959 16.6099 54.0763 16.8864 54.2004 17.1417C54.3186 17.371 54.4746 17.5755 54.6082 17.7953C54.6456 17.8674 54.6746 17.9436 54.6944 18.0223C54.703 18.1064 54.7237 18.1888 54.7559 18.2669C54.9687 18.5719 54.9616 18.6546 54.6377 18.8237C54.4687 18.9123 54.2264 19.0801 54.1141 19.0222C53.4203 18.6676 52.6863 18.904 51.9795 18.8189C51.8288 18.8015 51.6867 18.7394 51.5715 18.6406C51.4563 18.5418 51.3733 18.4109 51.333 18.2646C51.2444 17.9998 51.0695 17.7635 50.93 17.5164C50.9158 17.4904 50.8626 17.4751 50.8626 17.455C50.8626 17.2186 50.6901 17.0791 50.5801 16.8971C50.3698 16.5425 50.2256 16.1572 50.0282 15.8003C49.806 15.4031 49.5341 15.0332 49.319 14.6349C49.1831 14.3878 49.1145 14.1065 48.9975 13.8489C48.932 13.7485 48.8589 13.6533 48.7789 13.564C48.6158 13.3206 48.4467 13.0795 48.3061 12.8242C48.1793 12.6217 48.0837 12.4014 48.0224 12.1705C47.9444 11.7923 47.6076 11.6398 47.3995 11.3786C47.3546 11.3231 47.1951 11.3514 47.0887 11.3514C45.2189 11.342 43.3491 11.3314 41.4781 11.3314C41.2121 11.3314 41.1235 11.2486 40.9876 10.9874C40.5999 10.2274 40.88 9.45091 40.815 8.68147C40.7984 8.47936 40.958 8.2536 41.0667 8.05622C41.0987 8.00067 41.2405 7.99003 41.3315 7.98884C41.9544 7.97939 42.5784 7.97704 43.2013 7.97704C45.6089 7.97704 48.0165 7.99002 50.4241 7.95811C50.8106 7.95811 51.2515 7.85057 51.3838 7.32461C51.4441 7.08822 51.6592 6.90028 51.7928 6.68398C51.8338 6.6118 51.8561 6.53057 51.8578 6.4476C51.8684 6.03983 51.885 5.63208 51.8732 5.22431C51.8566 4.64989 51.5765 4.22558 51.1486 3.83909C50.9453 3.65707 50.7385 3.67124 50.5352 3.5885C49.41 3.12991 48.2399 3.41357 47.0958 3.37812C45.2165 3.31902 43.3337 3.35921 41.4532 3.35567C41.3232 3.36276 41.1968 3.34857 41.1566 3.3462Z" fill="white"/>
<path id="Vector_4" d="M85.281 18.943C85.1744 19.0149 85.0491 19.0543 84.9205 19.0564C84.7919 19.0585 84.6654 19.0232 84.5565 18.9548C84.4797 18.9075 84.3473 18.9548 84.2409 18.9548C84.1144 18.9621 83.9875 18.9594 83.8615 18.9465C83.7752 18.9335 83.7008 18.8567 83.6133 18.8378C83.3131 18.7704 83.1618 18.5849 83.0601 18.2953C82.9437 18.0234 82.807 17.7607 82.6512 17.5093C82.625 17.4655 82.6033 17.4192 82.5862 17.371C82.481 17.0401 82.403 16.6985 82.2683 16.3817C82.1619 16.1312 81.974 15.9161 81.8463 15.6726C81.7529 15.4965 81.7565 15.3003 81.591 15.1242C81.4255 14.9481 81.4409 14.5332 81.2565 14.3571C80.9658 14.0723 81.1206 13.6479 80.8168 13.3678C80.6313 13.1976 80.6029 12.862 80.4894 12.6067C80.376 12.3514 80.2531 12.141 80.142 11.9081C80.09 11.8041 80.038 11.7001 79.9836 11.5973C79.8465 11.3361 79.7082 11.0772 79.5675 10.8184C79.5534 10.7924 79.5132 10.7782 79.5037 10.7522C79.4009 10.4804 79.3193 10.199 79.1964 9.93665C79.0782 9.70027 78.9246 9.47927 78.7886 9.24879C78.751 9.19951 78.727 9.14122 78.7189 9.07975C78.7307 8.70271 78.5203 8.44743 78.2674 8.20868C78.226 8.16968 78.226 8.09049 78.1953 8.03849C78.1398 7.94039 78.0771 7.769 78.0121 7.769C77.8939 7.769 77.7757 7.87063 77.6575 7.92618C77.381 8.05501 77.4554 8.33159 77.3774 8.54906C77.2656 8.80942 77.1323 9.06007 76.9791 9.29842C76.9649 9.32442 76.9224 9.3398 76.9165 9.3658C76.8337 9.74993 76.6186 10.0572 76.4035 10.3799C76.2463 10.6163 76.2179 10.933 76.1009 11.2072C75.9603 11.5346 75.7865 11.8479 75.6282 12.1682C75.5442 12.3384 75.4615 12.5097 75.3918 12.6847C75.283 12.947 75.1967 13.2201 75.0762 13.4765C74.9556 13.733 74.8032 13.9789 74.6684 14.2306C74.6266 14.29 74.5995 14.3585 74.5892 14.4304C74.5908 14.5956 74.552 14.7588 74.4762 14.9057C74.4004 15.0525 74.2899 15.1786 74.1543 15.2731C74.1238 15.3024 74.1014 15.339 74.0893 15.3795C73.9841 15.7069 73.9049 16.0449 73.7713 16.3617C73.6506 16.6056 73.5119 16.8403 73.3565 17.0637C73.3565 17.0732 73.3387 17.0779 73.3352 17.0874C73.2336 17.3237 73.0752 17.5601 73.0433 17.8131C72.9818 18.2977 72.6981 18.5943 72.3341 18.8567C72.2656 18.9173 72.2035 18.9846 72.1485 19.0577C71.6758 18.7669 69.936 18.7633 69.5483 19.0387C69.0554 18.8213 69.0755 18.3993 69.1854 17.9974C69.254 17.7386 69.4407 17.5105 69.5755 17.2682C69.6009 17.2363 69.6242 17.2028 69.6452 17.1677C69.7468 16.8935 69.8249 16.6075 69.9513 16.3463C70.0695 16.1099 70.2515 15.9042 70.3756 15.6702C70.4997 15.4362 70.5931 15.1679 70.7042 14.9173C70.8153 14.6668 70.9181 14.4446 71.0281 14.2082C71.0872 14.0817 71.1462 13.9588 71.2124 13.8335C71.2786 13.7082 71.3531 13.551 71.4228 13.4116C71.4323 13.3926 71.4524 13.3796 71.4595 13.3607C71.5599 13.0983 71.6403 12.8277 71.762 12.5759C71.8838 12.3242 72.0646 12.0937 72.1934 11.8408C72.3223 11.5878 72.3979 11.3384 72.5149 11.0938C72.6414 10.829 72.7856 10.5737 72.9239 10.3149C72.9381 10.2889 72.9794 10.2759 72.9901 10.2499C73.0941 9.97804 73.1733 9.69554 73.2997 9.43433C73.4253 9.20357 73.5646 8.98058 73.717 8.76655C73.7276 8.75 73.7548 8.74054 73.7619 8.72399C73.8659 8.45451 73.9522 8.17559 74.0774 7.91556C74.2027 7.65554 74.3552 7.44277 74.497 7.21229C74.497 7.20402 74.516 7.20048 74.5195 7.19221C74.6271 6.93336 74.7216 6.6686 74.8434 6.41803C74.9651 6.16746 75.1187 5.92046 75.2594 5.67344C75.2736 5.64625 75.3067 5.62851 75.3173 5.60133C75.4068 5.32483 75.5101 5.05305 75.627 4.78699C75.7452 4.5506 75.9319 4.34021 76.0678 4.10619C76.1683 3.93363 76.2309 3.73977 76.316 3.55657C76.4118 3.34974 76.5181 3.14644 76.6115 2.93724C76.7377 2.61767 76.8999 2.31354 77.0949 2.03071C77.2592 1.81323 77.2935 1.50475 77.4318 1.26245C77.5287 1.07238 77.6785 0.914348 77.8632 0.807393C78.0641 0.712838 78.3537 1.00361 78.4459 1.2329C78.581 1.52966 78.7321 1.81888 78.8986 2.09927C78.908 2.117 78.9293 2.12881 78.9364 2.14772C79.0369 2.40892 79.1196 2.67957 79.2413 2.93133C79.3631 3.18308 79.5203 3.4041 79.6621 3.64049C79.6851 3.67377 79.7053 3.70897 79.7224 3.74569C79.8112 4.01318 79.9138 4.2759 80.0297 4.53285C80.1479 4.76924 80.3299 4.97373 80.4682 5.20185C80.565 5.36593 80.6503 5.53652 80.7235 5.71242C80.8346 5.97008 80.9232 6.23839 81.0438 6.49133C81.1643 6.74426 81.3168 6.99129 81.4563 7.2395C81.4716 7.26668 81.5083 7.28203 81.5177 7.30922C81.6194 7.58224 81.6974 7.86593 81.8238 8.12595C81.942 8.36234 82.1123 8.57272 82.247 8.80201C82.3643 8.99881 82.4697 9.20246 82.5626 9.41188C82.6808 9.67191 82.7434 9.95202 82.871 10.2038C82.9987 10.4555 83.1902 10.6494 83.3072 10.894C83.3923 11.0737 83.4135 11.2593 83.566 11.4354C83.7398 11.6339 83.7658 11.9554 83.8863 12.2107C84.0069 12.466 84.1499 12.6728 84.2858 12.901C84.3071 12.9352 84.3473 12.9601 84.3626 12.9955C84.5518 13.4387 84.6959 13.908 84.9371 14.3205C85.1392 14.6691 85.2786 15.0403 85.4642 15.3842C85.6597 15.7065 85.8289 16.044 85.9701 16.3936C86.0516 16.63 86.2502 16.825 86.3908 17.0425C86.4092 17.0912 86.4234 17.1414 86.4334 17.1926C86.5409 17.4609 86.6485 17.7304 86.762 17.9963C86.8199 18.131 86.9381 18.2539 86.9511 18.3899C86.9924 18.8449 86.7667 19.0612 86.2987 19.06C86.0942 19.06 85.8897 19.0707 85.6864 19.06C85.5482 19.0328 85.4125 18.9936 85.281 18.943Z" fill="white"/>
<path id="Vector_5" d="M157.416 0.547266C158.64 0.547266 159.866 0.547273 161.09 0.554364C161.241 0.554364 161.392 0.660747 161.544 0.710388C161.634 0.739733 161.726 0.761066 161.819 0.774188C162.013 0.799009 162.235 0.738754 162.351 0.976323C162.364 1.00233 162.427 1.00585 162.469 1.01767C162.804 1.11696 163.16 1.17134 163.467 1.32499C163.797 1.49046 164.08 1.74811 164.385 1.9644C164.427 1.99395 164.469 2.04004 164.514 2.04477C164.931 2.08968 165.099 2.47383 165.389 2.68894C165.626 2.88805 165.846 3.10667 166.046 3.34253C166.25 3.5541 166.464 3.75978 166.648 3.98907C166.906 4.3141 167.148 4.65211 167.38 4.99605C167.475 5.14905 167.554 5.31098 167.617 5.47948C167.735 5.76905 167.845 6.06337 167.963 6.35294C168.019 6.48886 168.101 6.61532 168.143 6.75479C168.175 6.89834 168.2 7.04353 168.216 7.18973C168.256 7.40012 168.171 7.64477 168.409 7.80433C168.457 7.83624 168.454 7.9639 168.454 8.04663C168.454 9.03473 168.464 10.0217 168.447 11.0086C168.447 11.1658 168.298 11.3159 168.253 11.4813C168.134 11.8891 168.072 12.3087 167.941 12.7094C167.857 12.9658 167.691 13.1952 167.564 13.4374C167.531 13.5001 167.469 13.5639 167.47 13.6265C167.47 14.0024 167.278 14.2612 167.005 14.4834C166.989 14.4964 166.964 14.5166 166.966 14.5307C166.989 14.7872 166.791 14.9255 166.67 15.1087C166.352 15.5945 166.013 16.098 165.543 16.4088C165.24 16.6062 165.006 16.8887 164.682 17.0518C164.59 17.0979 164.53 17.2043 164.446 17.2776C164.155 17.5459 163.784 17.6699 163.445 17.8543C163.051 18.0836 162.622 18.2484 162.176 18.3425C161.925 18.3898 161.704 18.5978 161.467 18.7219C161.376 18.7718 161.274 18.8001 161.169 18.8046C158.709 18.8172 156.247 18.8255 153.786 18.8294C153.647 18.8219 153.515 18.7628 153.417 18.6635C153.319 18.5643 153.262 18.4321 153.256 18.2928C153.256 17.638 153.256 16.9832 153.256 16.3285C153.253 16.248 153.267 16.1678 153.297 16.0931C153.327 16.0184 153.373 15.951 153.431 15.8952C153.489 15.8393 153.558 15.7964 153.634 15.7693C153.71 15.7421 153.791 15.7313 153.871 15.7375C155.043 15.7375 156.215 15.7505 157.386 15.747C158.384 15.747 159.383 15.7339 160.383 15.7079C160.502 15.7079 160.62 15.6134 160.738 15.5602C160.776 15.5425 160.814 15.4905 160.841 15.4976C161.241 15.5968 161.53 15.2966 161.863 15.1867C162.196 15.0768 162.503 14.8026 162.816 14.5957C162.865 14.5627 162.901 14.4776 162.948 14.4776C163.26 14.4504 163.401 14.214 163.576 14.0048C163.751 13.7956 163.956 13.6065 164.137 13.3996C164.216 13.2994 164.286 13.1926 164.346 13.0805C164.492 12.8441 164.637 12.5971 164.778 12.3548C164.809 12.3021 164.832 12.2446 164.845 12.1846C164.88 11.9523 164.953 11.7274 165.061 11.5192C165.254 11.1646 165.321 10.7273 165.355 10.3183C165.399 9.74152 165.371 9.16002 165.355 8.58087C165.355 8.35748 165.421 8.09866 165.155 7.94974C165.135 7.9391 165.134 7.89182 165.125 7.86109C165.032 7.51597 164.986 7.15191 164.832 6.8316C164.67 6.49593 164.405 6.20992 164.187 5.90025C164.054 5.71232 163.95 5.49248 163.79 5.33765C163.531 5.09299 163.362 4.75496 162.982 4.62849C162.806 4.56939 162.669 4.3921 162.51 4.27391C162.468 4.2291 162.419 4.19156 162.365 4.16281C162.037 4.05408 161.649 4.02925 161.386 3.83542C161.005 3.55411 160.569 3.73493 160.217 3.58128C159.381 3.21961 158.521 3.40165 157.673 3.36974C156.803 3.33665 155.932 3.36972 155.061 3.37799C154.588 3.37799 154.116 3.36738 153.643 3.36974C153.367 3.36974 153.234 3.26453 153.239 2.97141C153.25 2.28471 153.254 1.59683 153.239 0.910128C153.231 0.615826 153.35 0.516534 153.627 0.516534C154.777 0.516534 155.927 0.50591 157.078 0.5H157.4L157.416 0.547266Z" fill="white"/>
<path id="Vector_6" d="M90.8164 9.59281C90.8164 6.7475 90.8164 3.90338 90.8164 1.06043C90.8164 0.521469 90.8329 0.506082 91.3743 0.506082C92.0397 0.506082 92.7063 0.49899 93.3729 0.506082C93.8823 0.515537 93.8965 0.535631 93.8965 1.03914C93.8965 5.183 93.8965 9.32609 93.8965 13.4684C93.8965 14.0593 93.8965 14.6503 93.8965 15.2413C93.8965 15.7141 93.9237 15.7341 94.3811 15.7341H102.152C102.382 15.7341 102.625 15.6892 102.767 15.9493C102.821 16.0497 102.934 16.1443 102.935 16.2424C102.943 16.9291 102.947 17.617 102.91 18.3025C102.898 18.4987 102.741 18.6854 102.664 18.8828C102.546 19.1771 102.298 19.0459 102.112 19.0459C98.5758 19.0577 95.0395 19.0565 91.5031 19.0613C91.2667 19.0613 91.1651 19.0057 91.0209 18.7552C90.7301 18.2517 90.8365 17.7482 90.8329 17.2482C90.814 14.694 90.8247 12.1399 90.8247 9.58571L90.8164 9.59281Z" fill="white"/>
<path id="Vector_7" d="M60.6112 10.7351C60.6112 8.2353 60.6112 5.73433 60.6041 3.23336C60.6041 3.06907 60.4859 2.90715 60.467 2.73814C60.4379 2.58148 60.4548 2.41979 60.5154 2.27246C60.5679 2.20263 60.5956 2.11728 60.5941 2.02993C60.5926 1.94258 60.562 1.85821 60.5071 1.79022C60.4244 1.65785 60.4823 1.42736 60.5071 1.24416C60.5166 1.14605 60.6005 1.05624 60.61 0.958136C60.6573 0.513729 60.6513 0.507812 61.1135 0.507812C63.8012 0.507812 66.4881 0.507812 69.1743 0.507812C69.6719 0.507812 69.6955 0.537385 69.6931 1.03498C69.6931 1.64604 69.6931 2.25826 69.6813 2.86932C69.6719 3.34209 69.6494 3.35865 69.1826 3.35984C67.6342 3.36535 66.0867 3.36772 64.5399 3.36693C64.4217 3.36693 64.3035 3.36693 64.1853 3.36693C63.6996 3.37403 63.4963 3.58441 63.4963 4.07609V15.6023C63.4963 16.4935 63.4963 17.3843 63.4963 18.2747C63.4963 18.543 63.4679 18.7132 63.1311 18.8656C62.4384 19.1859 61.747 18.9838 61.0603 19.0169C60.9031 19.0264 60.6596 18.8113 60.649 18.5441C60.636 18.2439 60.6253 17.9437 60.6253 17.6435C60.6253 15.3364 60.6253 13.0289 60.6253 10.7209L60.6112 10.7351Z" fill="white"/>
<path id="Vector_8" d="M109.888 8.2436C109.888 10.572 109.898 12.9016 109.88 15.23C109.876 15.4821 109.817 15.7302 109.707 15.9568C109.596 16.1834 109.437 16.3828 109.241 16.5408C108.932 16.8079 108.676 17.1317 108.384 17.4213C108.159 17.6411 107.911 17.8409 107.684 18.0537C107.569 18.1784 107.447 18.2968 107.319 18.4082C107.215 18.4823 107.092 18.5234 106.964 18.5264C106.909 18.5264 106.846 18.3858 106.801 18.303C106.747 18.2269 106.707 18.1417 106.683 18.0513C106.661 17.9035 106.61 17.718 106.675 17.6104C106.763 17.4662 106.8 17.3918 106.675 17.2558C106.612 17.1736 106.58 17.0719 106.585 16.9686C106.578 12.0833 106.574 7.20072 106.574 2.32091C106.574 1.96633 106.574 1.61175 106.574 1.25717C106.574 0.666202 106.731 0.511358 107.321 0.507812C107.955 0.507812 108.588 0.507812 109.223 0.507812C109.696 0.507812 109.897 0.71347 109.897 1.18861C109.897 3.53987 109.897 5.88997 109.897 8.23886L109.888 8.2436Z" fill="white"/>
<path id="Vector_9" d="M141.663 15.7433C143.48 15.7433 145.297 15.7433 147.113 15.7433C147.371 15.7433 147.486 15.8213 147.63 16.0766C148.015 16.7538 147.748 17.4488 147.788 18.1308C147.802 18.3376 147.653 18.6036 147.495 18.7584C147.385 18.8636 147.13 18.834 146.94 18.834C143.425 18.834 139.909 18.834 136.394 18.834C136.244 18.8423 136.093 18.8331 135.945 18.8069C135.855 18.7733 135.779 18.711 135.728 18.6296C135.634 18.5209 135.567 18.3918 135.533 18.2525C135.531 18.0734 135.549 17.8946 135.587 17.7195C135.6 17.6013 135.657 17.463 135.611 17.3803C135.516 17.1974 135.47 16.9932 135.477 16.7874C135.485 16.5816 135.545 16.3812 135.652 16.2054C135.652 16.1971 135.669 16.1877 135.669 16.1782C135.683 15.6428 136.076 15.7397 136.407 15.7386C138.16 15.7386 139.912 15.7386 141.663 15.7386V15.7433Z" fill="white"/>
<path id="Vector_10" d="M135.677 1.67378C135.45 1.43739 135.377 1.22227 135.641 0.957517C135.721 0.875963 135.703 0.697487 135.735 0.539107C135.897 0.52847 136.055 0.510742 136.214 0.510742C139.847 0.510742 143.48 0.510742 147.114 0.510742C147.622 0.510742 147.809 0.701054 147.81 1.21165C147.81 1.42558 147.81 1.64069 147.81 1.8558C147.81 2.052 147.833 2.23756 147.66 2.41722C147.569 2.51059 147.614 2.74224 147.606 2.91244C147.588 3.3663 147.585 3.37812 147.134 3.37812C144.801 3.37812 142.469 3.37812 140.137 3.37812C138.825 3.37812 137.513 3.37614 136.202 3.3722C135.729 3.3722 135.715 3.35447 135.695 2.89943C135.685 2.67131 135.713 2.45268 135.531 2.24111C135.45 2.14774 135.563 1.88653 135.589 1.70569L135.677 1.67378Z" fill="white"/>
<path id="Vector_11" d="M141.031 11.1091H136.2C135.72 11.1091 135.727 11.1091 135.674 10.6493C135.662 10.5524 135.585 10.465 135.561 10.3669C135.538 10.2688 135.489 10.1222 135.535 10.0501C135.753 9.70969 135.759 9.38703 135.535 9.05609C135.518 9.03009 135.489 8.99345 135.498 8.97099C135.574 8.73461 135.616 8.47458 135.753 8.28902C135.82 8.21304 135.902 8.15123 135.993 8.1072C136.084 8.06316 136.183 8.03778 136.285 8.03255C139.485 8.01836 142.685 8.02426 145.884 8.01953C146.121 8.01953 146.208 8.09636 146.328 8.31501C146.742 9.07618 146.434 9.87517 146.517 10.6493C146.538 10.8444 146.188 11.1056 145.962 11.1056H141.035L141.031 11.1091Z" fill="white"/>
<path id="Vector_12" d="M17.6172 10.4472V9.80779C17.6237 9.78495 17.6285 9.76162 17.6314 9.73804C17.6525 9.2445 17.7142 8.75353 17.8157 8.27009C17.9897 7.41575 18.2821 6.58988 18.6845 5.81639C19.2124 4.81528 19.919 3.91918 20.7694 3.17239C21.5715 2.45235 22.4947 1.87975 23.4961 1.48104C24.1189 1.23118 24.7686 1.05468 25.4322 0.95508C25.7986 0.901893 26.1661 0.847519 26.5361 0.830972C26.9133 0.806961 27.2919 0.817248 27.6672 0.861703C28.1589 0.909291 28.6477 0.983084 29.1316 1.08274C30.9196 1.49902 32.5397 2.44671 33.779 3.80119C34.5117 4.58115 35.104 5.48209 35.5294 6.46409C35.9255 7.39625 36.1697 8.38586 36.2527 9.39529C36.261 9.49694 36.2776 9.5962 36.2918 9.69666V10.5973C36.274 10.7155 36.2492 10.8242 36.2386 10.9401C36.1926 11.4946 36.1012 12.0445 35.9655 12.5841C35.5093 14.3273 34.5464 15.8961 33.1986 17.092C32.3717 17.8459 31.414 18.4424 30.3726 18.8519C29.7456 19.0986 29.0925 19.273 28.426 19.372C28.0714 19.4287 27.7062 19.4677 27.3433 19.4902C26.966 19.5105 26.5877 19.4994 26.2122 19.4571C25.7252 19.4111 25.2414 19.3365 24.7632 19.2337C24.0014 19.052 23.2653 18.7761 22.5718 18.4122C21.6017 17.8945 20.7316 17.2082 20.0023 16.3852C19.4024 15.7212 18.9016 14.974 18.5155 14.1667C17.9875 13.0392 17.6867 11.8187 17.6302 10.5749C17.629 10.5276 17.6172 10.4874 17.6172 10.4472ZM27.3965 17.9927C27.3823 17.9667 27.3729 17.9454 27.3599 17.9265C27.0407 17.4206 26.7193 16.9171 26.4013 16.4101C25.6473 15.2084 24.8944 14.0056 24.1426 12.8016C23.8602 12.3501 23.5741 11.901 23.307 11.44C23.0286 10.9684 22.8665 10.4372 22.8342 9.89052C22.8032 9.26124 22.9278 8.63403 23.1971 8.06443C23.5363 7.336 24.0935 6.73093 24.7915 6.33288C25.3302 6.00736 25.9371 5.81154 26.5644 5.76084C26.9027 5.73344 27.243 5.74096 27.5797 5.78329C28.0426 5.83732 28.4928 5.97046 28.9106 6.17689C30.0783 6.7584 31.1137 8.17672 31.0381 9.72269C31.0225 10.2615 30.8928 10.7908 30.6575 11.2757C30.4272 11.7277 30.1209 12.1367 29.7521 12.4849C29.5171 12.7217 29.2266 12.896 28.907 12.9919C28.5524 13.0924 28.2451 13.0416 27.991 12.7614C27.8517 12.6248 27.7587 12.4478 27.7251 12.2556C27.7108 12.1333 27.7268 12.0094 27.7717 11.8948C27.8166 11.7801 27.8891 11.6783 27.9827 11.5984C28.1423 11.4471 28.3125 11.3053 28.4851 11.1682C28.8221 10.929 29.062 10.5766 29.1611 10.1754C29.282 9.65472 29.2071 9.10782 28.9507 8.63884C28.7238 8.19488 28.3469 7.84568 27.887 7.65312C27.5388 7.51526 27.1634 7.45983 26.7902 7.49118C26.5205 7.49811 26.2545 7.55626 26.0066 7.66256C25.4988 7.88949 25.0941 8.29795 24.8719 8.80784C24.7573 9.05601 24.6964 9.3256 24.6931 9.59893C24.6898 9.87226 24.7443 10.1432 24.853 10.394C25.0218 10.7881 25.2235 11.1672 25.4558 11.5275C26.1255 12.6007 26.7953 13.6739 27.4651 14.7471C28.0742 15.7241 28.6817 16.7032 29.2876 17.6842C29.2914 17.6957 29.2977 17.7062 29.3061 17.715C29.3145 17.7237 29.3247 17.7304 29.3361 17.7347C29.3475 17.7389 29.3597 17.7404 29.3717 17.7393C29.3838 17.7381 29.3954 17.7342 29.4058 17.7279C29.81 17.5944 30.2154 17.4655 30.6208 17.3343C30.7792 17.2835 30.7851 17.2989 30.6823 17.1511C30.569 17.0064 30.51 16.8264 30.5156 16.6427C30.5212 16.4589 30.5911 16.2829 30.713 16.1453C30.8206 16.0267 30.9448 15.9244 31.0818 15.8415C31.7074 15.4608 32.2821 15.0021 32.792 14.4764C33.3198 13.9346 33.7586 13.3127 34.0922 12.6338C34.507 11.7604 34.728 10.8077 34.7399 9.84088C34.7501 9.35142 34.7157 8.86203 34.637 8.37882C34.5162 7.59725 34.2577 6.8433 33.8735 6.15204C33.4607 5.42915 32.9233 4.78495 32.2862 4.24915C31.0836 3.19547 29.5871 2.53549 27.9981 2.35805C27.3014 2.27983 26.5978 2.28617 25.9026 2.37695C24.9798 2.49258 24.0859 2.77535 23.2645 3.2114C21.728 4.02221 20.5968 5.23369 19.8274 6.78321C19.3605 7.72457 19.1343 8.76701 19.1691 9.81722C19.181 10.2068 19.2233 10.5949 19.2955 10.9779C19.467 11.8793 19.8096 12.7395 20.3049 13.5119C21.0306 14.6529 21.7603 15.7899 22.4939 16.923C22.5272 16.9744 22.5743 17.0154 22.6298 17.0412C22.9536 17.1807 23.281 17.3154 23.6084 17.4478C23.6911 17.4821 23.7786 17.5033 23.8637 17.5317C23.8339 17.4448 23.7942 17.3615 23.7455 17.2835C23.194 16.3994 22.6396 15.5153 22.0825 14.6312C21.709 14.0403 21.3308 13.4399 20.9609 12.8406C20.3033 11.7814 20.0103 10.5361 20.1264 9.29482C20.1762 8.6479 20.3171 8.01126 20.5448 7.40372C20.8498 6.58607 21.3294 5.84474 21.9501 5.23134C22.5088 4.68118 23.1516 4.22353 23.8543 3.87564C24.886 3.3525 26.0352 3.10458 27.1909 3.15586C27.6689 3.17845 28.1438 3.24612 28.6092 3.35796C29.1868 3.48568 29.7451 3.68872 30.2698 3.96191C31.007 4.36471 31.6685 4.89264 32.2247 5.52209C32.6986 6.03272 33.0848 6.61818 33.3676 7.2548C33.87 8.41191 33.9503 9.61158 33.7139 10.8408C33.5712 11.5748 33.2848 12.2733 32.8712 12.8962C32.5457 13.3933 32.154 13.8438 31.707 14.2353C31.3524 14.5438 30.9979 14.8381 30.622 15.1218C30.5173 15.2054 30.3961 15.2658 30.2663 15.299C30.1365 15.3322 30.0011 15.3375 29.8691 15.3144C29.355 15.2246 28.9425 14.6289 29.2273 14.0651C29.3417 13.858 29.5188 13.6925 29.7332 13.5923C30.1191 13.3929 30.4687 13.13 30.7674 12.8146C31.1473 12.3955 31.4474 11.9104 31.6527 11.3833C31.901 10.8059 32.0343 10.1856 32.0451 9.5572C32.0436 9.14753 31.9827 8.74025 31.8642 8.34809C31.6615 7.63907 31.2826 6.99297 30.7627 6.47C30.3129 6.01661 29.7893 5.64292 29.2143 5.36488C28.5469 5.0343 27.8104 4.86701 27.0656 4.87676C26.7701 4.88265 26.4754 4.9099 26.1838 4.95831C25.4228 5.07515 24.6952 5.35231 24.0493 5.77146C23.2821 6.27823 22.676 6.99387 22.3024 7.83393C22.005 8.45469 21.8646 9.13898 21.8934 9.82669C21.9283 10.5791 22.1518 11.3107 22.5435 11.9542C23.203 13.0486 23.8791 14.1325 24.5528 15.2222C25.0925 16.1063 25.6323 16.9912 26.172 17.8769C26.1905 17.9146 26.2193 17.9465 26.255 17.9686C26.2908 17.9908 26.3321 18.0024 26.3742 18.0021C26.7063 18.0021 27.0384 18.0092 27.3705 18.0128L27.3965 17.9927Z" fill="white"/>
</g>
</svg>
