<svg width="44" height="44" viewBox="0 0 44 44" fill="none" xmlns="http://www.w3.org/2000/svg">
<path id="Vector" d="M0 22.6847V21.1784C0.0153635 21.1245 0.0261328 21.0693 0.0321938 21.0135C0.0839759 19.851 0.229723 18.6945 0.468009 17.5555C0.877807 15.5421 1.5671 13.5958 2.51592 11.7729C3.76136 9.39055 5.41877 7.32921 7.42614 5.54542C9.33812 3.8474 11.4689 2.50018 13.8507 1.55974C15.3179 0.970565 16.8489 0.554412 18.4127 0.319725C19.276 0.194056 20.1417 0.0671961 21.0139 0.0261005C21.9004 -0.016782 22.7905 -0.016187 23.6801 0.0999529C24.8337 0.251233 25.9939 0.347122 27.1302 0.621094C31.342 1.59921 35.1586 3.82819 38.078 7.01474C39.807 8.87358 41.2015 10.9522 42.2049 13.2875C43.154 15.4965 43.6953 17.8056 43.9076 20.1963C43.9285 20.4346 43.9672 20.668 44 20.9039V23.0266C43.9571 23.2958 43.9004 23.5626 43.8742 23.8342C43.7478 25.1409 43.5713 26.4369 43.2303 27.7091C42.1564 31.8147 39.8883 35.5101 36.7128 38.3284C34.7406 40.1075 32.5329 41.5101 30.0527 42.4773C28.576 43.0581 27.0378 43.4691 25.468 43.7024C24.6224 43.8365 23.7706 43.928 22.9157 43.9764C22.0266 44.0248 21.135 43.9987 20.2502 43.8984C19.1055 43.7578 17.9596 43.6488 16.8358 43.3743C15.0419 42.945 13.3084 42.2946 11.6752 41.438C9.36495 40.2153 7.36116 38.6036 5.61969 36.6608C4.2056 35.097 3.02598 33.3365 2.11767 31.4345C0.847186 28.7543 0.188992 25.9247 0.0310021 22.9712C0.0286174 22.8747 0.0107314 22.78 0 22.6847ZM23.0404 40.4624C23.0082 40.4029 22.9849 40.3529 22.9557 40.307C22.2027 39.1158 21.4449 37.9288 20.6961 36.7335C18.9195 33.9012 17.1456 31.0676 15.3745 28.2326C14.7104 27.1683 14.0349 26.1099 13.4071 25.0248C12.7547 23.9119 12.3763 22.6602 12.303 21.3726C12.2165 19.867 12.5379 18.4364 13.1585 17.0707C13.9616 15.3018 15.2631 13.9843 16.9145 12.9909C18.1787 12.2251 19.6041 11.7641 21.0777 11.6443C21.8748 11.5788 22.6766 11.596 23.4702 11.6955C24.5608 11.823 25.6214 12.1369 26.6056 12.6234C29.357 13.9933 31.796 17.3339 31.6279 20.9742C31.5683 22.2535 31.3059 23.481 30.73 24.6335C30.1934 25.7127 29.4613 26.6495 28.5968 27.4834C28.0275 28.0331 27.3764 28.4583 26.6062 28.6781C25.7822 28.9134 25.0459 28.7943 24.448 28.1337C24.1367 27.7901 23.8828 27.4149 23.822 26.9426C23.7415 26.3178 23.9943 25.8109 24.4295 25.394C24.8045 25.0367 25.2045 24.7026 25.6123 24.3815C26.3939 23.7681 26.9836 23.0337 27.2059 22.0415C27.4927 20.7681 27.3174 19.5573 26.7099 18.4113C26.1459 17.3476 25.3142 16.5573 24.197 16.0885C23.37 15.7419 22.5014 15.6544 21.6125 15.705C20.9751 15.7413 20.3527 15.8396 19.7679 16.1094C18.5403 16.6758 17.6436 17.5763 17.0946 18.808C16.5455 20.0397 16.5329 21.2916 17.048 22.5453C17.4332 23.4822 17.9334 24.3583 18.4682 25.2154C20.0489 27.7454 21.6314 30.2743 23.2156 32.802C24.6524 35.1049 26.0845 37.4116 27.5118 39.7221C27.5839 39.8412 27.6423 39.8692 27.7801 39.824C28.734 39.5095 29.6879 39.2069 30.6448 38.8978C31.0168 38.7787 31.0311 38.8138 30.7902 38.466C30.2501 37.6858 30.2602 36.7865 30.8612 36.0962C31.1146 35.8175 31.407 35.5768 31.7292 35.3815C33.1935 34.4595 34.5659 33.4309 35.7601 32.1653C36.9888 30.8693 38.0369 29.444 38.812 27.8228C39.8076 25.7419 40.2893 23.5417 40.3382 21.2428C40.3625 20.09 40.2827 18.9375 40.0997 17.7991C39.8143 15.9582 39.2045 14.1825 38.2986 12.5543C37.3322 10.8271 36.0558 9.35779 34.5581 8.06894C31.6446 5.56091 28.2815 4.06479 24.4569 3.61929C22.8154 3.4348 21.1576 3.45 19.5198 3.66455C17.3451 3.93767 15.2383 4.60366 13.3022 5.63C9.67437 7.54124 7.01656 10.3947 5.20474 14.0469C4.08986 16.294 3.58668 18.6847 3.65464 21.1939C3.68194 22.1122 3.78161 23.0269 3.95274 23.9295C4.35599 26.0532 5.16288 28.08 6.32975 29.9003C8.03883 32.5872 9.75844 35.2657 11.4886 37.936C11.5671 38.0537 11.6775 38.1467 11.8069 38.204C12.5713 38.5333 13.3415 38.8496 14.113 39.1629C14.308 39.2421 14.5142 39.2945 14.7152 39.3594C14.6406 39.1547 14.5439 38.9588 14.4266 38.7751C13.1221 36.6918 11.8161 34.6092 10.5084 32.5274C9.62608 31.1212 8.73716 29.7198 7.86315 28.3082C6.27311 25.7413 5.66142 22.939 5.8987 19.945C6.01499 18.419 6.34678 16.9171 6.8842 15.484C7.60244 13.5573 8.73218 11.8101 10.1948 10.3637C11.5142 9.05345 13.0214 8.00521 14.6812 7.17019C17.1114 5.9377 19.8192 5.3538 22.5419 5.47515C23.6717 5.52799 24.794 5.68753 25.8937 5.95162C27.2554 6.26787 28.57 6.71278 29.8059 7.37448C31.5677 8.3167 33.0772 9.57459 34.4127 11.0499C35.5198 12.2726 36.4469 13.6151 37.1051 15.132C38.2891 17.8592 38.4763 20.6865 37.9207 23.5811C37.5852 25.3103 36.9107 26.9561 35.9359 28.4238C35.1683 29.5947 34.2458 30.6565 33.1935 31.5804C32.3665 32.3058 31.511 33.0009 30.6358 33.668C30.1255 34.0563 29.5227 34.2379 28.861 34.1218C27.6495 33.9104 26.6777 32.5054 27.3496 31.1784C27.6113 30.6614 28.0466 30.3297 28.542 30.0658C29.451 29.5945 30.2746 28.9744 30.9786 28.2314C31.9003 27.2475 32.5549 26.0986 33.0653 24.8598C33.6323 23.481 33.9816 22.0546 33.9888 20.5567C33.9853 19.5914 33.8413 18.6318 33.5613 17.708C33.0841 16.0376 32.1915 14.5151 30.9667 13.2821C29.9068 12.2146 28.6733 11.3345 27.3186 10.6794C25.7465 9.90085 24.0115 9.50704 22.257 9.53051C21.5609 9.54285 20.8666 9.60635 20.1798 9.72051C18.3746 10.0141 16.6844 10.6329 15.148 11.6383C13.2962 12.8509 11.9578 14.4971 11.0343 16.4977C10.3469 17.9867 9.98797 19.5436 10.0691 21.191C10.1505 22.9661 10.6772 24.6924 11.6007 26.2112C13.1567 28.7889 14.7474 31.3434 16.3207 33.911C17.5954 35.9927 18.8672 38.0773 20.1363 40.1646C20.2555 40.3564 20.3915 40.4577 20.6133 40.4595C21.3955 40.4654 22.1777 40.4761 22.9599 40.4845C22.9873 40.4795 23.0142 40.4721 23.0404 40.4624Z" fill="white"/>
</svg>
